<svg id="Capa_1" data-name="Capa 1" xmlns="http://www.w3.org/2000/svg" viewBox="0 0 177.76 71.72"><defs><style>.cls-1,.cls-4{fill:#fff;}.cls-2{fill:#006837;}.cls-3{fill:none;stroke:#fff;stroke-miterlimit:10;stroke-width:2px;}.cls-4{font-size:34px;font-family:BradleyHandITC, Bradley Hand ITC;}</style></defs><title>logo-greenpalate-blancos</title><path class="cls-1" d="M350.84,240.45c1.72.62,2.43,3.08,3.08,4.59q1.41,3.22,2.64,6.54a137.67,137.67,0,0,1,4.24,13.48q.88,3.48,1.61,7c.23,1.13.44,2.27.64,3.4l.27,1.6a5.07,5.07,0,0,0,.11.68c-.05.41,0,.52.17.32s.14-.15-.14,0a21.08,21.08,0,0,0-3.25.28l-4,.34-7.46.62-17.41,1.45c-1.91.16-1.93,3.16,0,3l17.41-1.45,8.45-.71,4.23-.35a9.65,9.65,0,0,0,3.63-.59c2.31-1.24,1.14-4.39.78-6.41q-.69-3.87-1.61-7.69A135.23,135.23,0,0,0,359.53,251c-1-2.74-2.12-5.45-3.3-8.12-1-2.28-2.11-4.42-4.59-5.33-1.81-.66-2.6,2.24-.8,2.9Z" transform="translate(-312 -212)"/><circle class="cls-2" cx="26.5" cy="26.5" r="26.5"/><circle class="cls-3" cx="26.36" cy="26.64" r="18.09"/><text class="cls-4" transform="translate(53 45)">reenplate</text></svg>